<svg version="1.1" viewBox="0.0 0.0 4000.0 4000.0" fill="none" stroke="none" stroke-linecap="square" stroke-miterlimit="10" xmlns:xlink="http://www.w3.org/1999/xlink" xmlns="http://www.w3.org/2000/svg"><clipPath id="g104734c5ba7_0_45.0"><path d="m0 0l4000.0 0l0 4000.0l-4000.0 0l0 -4000.0z" clip-rule="nonzero"/></clipPath><g clip-path="url(#g104734c5ba7_0_45.0)"><path fill="#ffffff" fill-opacity="0.0" d="m0 0l4000.0 0l0 4000.0l-4000.0 0z" fill-rule="evenodd"/><path fill="#000000" d="m21.030184 1418.005l1094.0472 0l0 245.41736l-1094.0472 0z" fill-rule="evenodd"/><path fill="#000000" d="m690.6582 1418.005l0 1160.7245l-245.41733 0l0 -1160.7245z" fill-rule="evenodd"/><defs><linearGradient id="g104734c5ba7_0_45.1" gradientUnits="userSpaceOnUse" gradientTransform="matrix(35.97832217664336 0.0 0.0 35.97832217664336 0.0 0.0)" spreadMethod="pad" x1="39.11481547587165" y1="33.51272300458566" x2="13.67416139560099" y2="58.953100097198806"><stop offset="0.0" stop-color="#00ffff"/><stop offset="0.64" stop-color="#00ff80"/><stop offset="1.0" stop-color="#00ff00"/></linearGradient></defs><path fill="url(#g104734c5ba7_0_45.1)" d="m949.6269 2121.0386l0 0c0 -252.755 204.8985 -457.65356 457.6535 -457.65356l0 0c121.37732 0 237.7832 48.21692 323.61 134.0437c85.82666 85.82666 134.04358 202.23267 134.04358 323.60986l0 0c0 252.75513 -204.89844 457.65356 -457.65356 457.65356l0 0c-252.755 0 -457.6535 -204.89844 -457.6535 -457.65356z" fill-rule="evenodd"/><path fill="#000000" d="m3105.2632 1417.8373l-673.18115 1164.3151l-673.181 -1164.3151z" fill-rule="evenodd"/><path fill="#000000" d="m1803.9451 1663.1714l-146.93372 -245.26367l-947.1136 0.38171387l146.93365 245.26367z" fill-rule="evenodd"/><path fill="#000000" d="m3722.7236 1540.6951l0 975.14966l-245.41724 0l0 -975.14966z" fill-rule="evenodd"/><path fill="#000000" d="m3221.1428 1418.0142l757.8269 0l0 245.41736l-757.8269 0z" fill-rule="evenodd"/><path fill="#000000" d="m3221.1428 2333.3765l757.8269 0l0 245.41724l-757.8269 0z" fill-rule="evenodd"/><path fill="#000000" d="m3064.799 1663.5582l146.93384 -245.39099l599.7749 -0.2783203l-146.9336 245.39099z" fill-rule="evenodd"/></g></svg>