<svg version="1.1" viewBox="0.0 0.0 4000.0 4000.0" fill="none" stroke="none" stroke-linecap="square" stroke-miterlimit="10" xmlns:xlink="http://www.w3.org/1999/xlink" xmlns="http://www.w3.org/2000/svg"><clipPath id="g1049ae94175_1_0.0"><path d="m0 0l4000.0 0l0 4000.0l-4000.0 0l0 -4000.0z" clip-rule="nonzero"/></clipPath><g clip-path="url(#g1049ae94175_1_0.0)"><defs><linearGradient id="g1049ae94175_1_0.1" gradientUnits="userSpaceOnUse" gradientTransform="matrix(75.21206340403117 0.0 0.0 75.21206340403117 0.0 0.0)" spreadMethod="pad" x1="-26.591478939438396" y1="26.591380791755302" x2="26.59138515387455" y2="79.7744368183152"><stop offset="0.0" stop-color="#c9daf8"/><stop offset="1.0" stop-color="#cfe2f3"/></linearGradient></defs><path fill="url(#g1049ae94175_1_0.1)" d="m0 0l4000.0 0l0 4000.0l-4000.0 0z" fill-rule="evenodd"/><defs><linearGradient id="g1049ae94175_1_0.2" gradientUnits="userSpaceOnUse" gradientTransform="matrix(33.95612032314846 0.0 0.0 33.95612032314846 0.0 0.0)" spreadMethod="pad" x1="57.107619974509966" y1="36.46643616648925" x2="81.11817943876119" y2="60.47708258872853"><stop offset="0.0" stop-color="#00ffff"/><stop offset="1.0" stop-color="#6aa84f"/></linearGradient></defs><path fill="url(#g1049ae94175_1_0.2)" d="m2346.8066 1238.2601l0 0c0 -225.14081 182.5127 -407.65356 407.65356 -407.65356l0 0c108.116455 0 211.80469 42.949097 288.25464 119.39899c76.44971 76.44989 119.398926 180.13812 119.398926 288.25458l0 0c0 225.14087 -182.5127 407.65356 -407.65356 407.65356l0 0c-225.14087 0 -407.65356 -182.5127 -407.65356 -407.65356z" fill-rule="evenodd"/><defs><linearGradient id="g1049ae94175_1_0.3" gradientUnits="userSpaceOnUse" gradientTransform="matrix(40.57819550204006 0.0 0.0 40.57819550204006 0.0 0.0)" spreadMethod="pad" x1="30.397815915652384" y1="26.215264466034206" x2="59.090881580079326" y2="54.90843321712664"><stop offset="0.0" stop-color="#00ffff"/><stop offset="1.0" stop-color="#00ff00"/></linearGradient></defs><path fill="url(#g1049ae94175_1_0.3)" d="m1815.646 1063.7701l0 0c0 -321.51666 260.64062 -582.1575 582.1575 -582.1575l0 0c154.3977 0 302.47168 61.33426 411.64746 170.50998c109.17578 109.17572 170.51001 257.24976 170.51001 411.64746l0 0c0 321.51672 -260.64087 582.1576 -582.1575 582.1576l0 0c-321.51685 0 -582.1575 -260.64087 -582.1575 -582.1576z" fill-rule="evenodd"/><defs><linearGradient id="g1049ae94175_1_0.4" gradientUnits="userSpaceOnUse" gradientTransform="matrix(46.89038981783654 0.0 0.0 46.89038981783654 0.0 0.0)" spreadMethod="pad" x1="21.176830332483267" y1="24.36645854171805" x2="-18.58879288777199" y2="49.21407144866276"><stop offset="0.0" stop-color="#49c4c4"/><stop offset="0.64" stop-color="#10ff88"/><stop offset="1.0" stop-color="#00ff00"/></linearGradient></defs><path fill="url(#g1049ae94175_1_0.4)" d="m-154.57684 2657.4226l0 0c0 -440.6189 357.19214 -797.81104 797.81104 -797.81104l0 0c211.59265 0 414.51898 84.05481 564.1375 233.67334c149.61865 149.61865 233.67346 352.54492 233.67346 564.1377l0 0c0 440.6189 -357.19214 797.81104 -797.811 797.81104l0 0c-440.6189 0 -797.81104 -357.19214 -797.81104 -797.81104z" fill-rule="evenodd"/><defs><linearGradient id="g1049ae94175_1_0.5" gradientUnits="userSpaceOnUse" gradientTransform="matrix(27.54669178510776 0.0 0.0 27.54669178510776 0.0 0.0)" spreadMethod="pad" x1="85.57337141572673" y1="85.7447101851799" x2="105.05178229082036" y2="105.22320443100799"><stop offset="0.0" stop-color="#a2c4c9"/><stop offset="1.0" stop-color="#93c47d"/></linearGradient></defs><path fill="url(#g1049ae94175_1_0.5)" d="m2625.5469 2361.9841l0 0c0 -148.1687 120.1145 -268.28345 268.28345 -268.28345l0 0c71.153076 0 139.39209 28.265625 189.70508 78.57861c50.312744 50.312744 78.57837 118.55176 78.57837 189.70483l0 0c0 148.16895 -120.114746 268.2837 -268.28345 268.2837l0 0c-148.16895 0 -268.28345 -120.114746 -268.28345 -268.2837z" fill-rule="evenodd"/><defs><linearGradient id="g1049ae94175_1_0.6" gradientUnits="userSpaceOnUse" gradientTransform="matrix(69.51659652060286 0.0 0.0 69.51659652060286 0.0 0.0)" spreadMethod="pad" x1="-4.768907948099313" y1="59.898416544084284" x2="44.38666066078194" y2="109.05416154449966"><stop offset="0.0" stop-color="#00ffff"/><stop offset="1.0" stop-color="#00ff00"/></linearGradient></defs><path fill="url(#g1049ae94175_1_0.6)" d="m1377.0487 4163.9404l0 0c0 -943.6157 764.95154 -1708.5671 1708.567 -1708.5671l0 0c453.14014 0 887.7207 180.00928 1208.1392 500.42773c320.41846 320.41846 500.42773 754.999 500.42773 1208.1394l0 0c0 943.61523 -764.9514 1708.5669 -1708.5669 1708.5669l0 0c-943.6155 0 -1708.567 -764.95166 -1708.567 -1708.5669z" fill-rule="evenodd"/><defs><linearGradient id="g1049ae94175_1_0.7" gradientUnits="userSpaceOnUse" gradientTransform="matrix(30.94818279471591 0.0 0.0 30.94818279471591 0.0 0.0)" spreadMethod="pad" x1="3.4421731764291374" y1="34.372523564455584" x2="25.325802513697887" y2="56.25623406620049"><stop offset="0.0" stop-color="#49c4c4"/><stop offset="0.64" stop-color="#10ff88"/><stop offset="1.0" stop-color="#00ff00"/></linearGradient></defs><path fill="url(#g1049ae94175_1_0.7)" d="m445.15894 1063.7684l0 0c0 -187.02014 151.6098 -338.62988 338.62994 -338.62988l0 0c89.81024 0 175.94208 35.67694 239.44751 99.18237c63.505432 63.505432 99.182434 149.63727 99.182434 239.44751l0 0c0 187.02014 -151.6098 338.62988 -338.62994 338.62988l0 0c-187.02014 0 -338.62994 -151.60974 -338.62994 -338.62988z" fill-rule="evenodd"/></g></svg>