<svg version="1.1" viewBox="0.0 0.0 3000.0 3000.0" fill="none" stroke="none" stroke-linecap="square" stroke-miterlimit="10" xmlns:xlink="http://www.w3.org/1999/xlink" xmlns="http://www.w3.org/2000/svg"><clipPath id="gcffa2c0978_0_192.0"><path d="m0 0l3000.0 0l0 3000.0l-3000.0 0l0 -3000.0z" clip-rule="nonzero"/></clipPath><g clip-path="url(#gcffa2c0978_0_192.0)"><path fill="#000000" fill-opacity="0.0" d="m0 0l3000.0 0l0 3000.0l-3000.0 0z" fill-rule="evenodd"/><path fill="#00ea88" d="m1674.6373 1416.9781l90.208496 0l0 490.73425l-90.208496 0z" fill-rule="evenodd"/><path fill="#00ea88" d="m1674.6373 1593.223l0 0c0 -84.34888 59.758423 -156.87317 142.54468 -172.99548c82.78613 -16.122314 165.38892 28.67749 197.03613 106.86316l-82.43945 33.375244l0 0c-15.674438 -38.731567 -56.589355 -60.92517 -97.59558 -52.93933c-41.006348 7.985962 -70.60657 43.91223 -70.60657 85.69641z" fill-rule="evenodd"/><path fill="#00ea88" d="m2047.3068 1092.2584l90.208374 0l0 815.48486l-90.208374 0z" fill-rule="evenodd"/><path fill="#00ea88" d="m2047.3068 1662.3452l0 0c0 -135.51245 109.854614 -245.36707 245.36707 -245.36707l0 0c65.07544 0 127.485596 25.851074 173.50073 71.86633c46.01538 46.01526 71.866455 108.425415 71.866455 173.50073l0 0c0 135.51257 -109.85474 245.36719 -245.36719 245.36719l0 0c-135.51245 0 -245.36707 -109.854614 -245.36707 -245.36719zm90.30969 0l0 0c0 85.635864 69.42163 155.05737 155.05737 155.05737c85.63574 0 155.05737 -69.42151 155.05737 -155.05737l0 0c0 -85.63574 -69.42163 -155.05725 -155.05737 -155.05725l0 0c-85.63574 0 -155.05737 69.42151 -155.05737 155.05725z" fill-rule="evenodd"/><path fill="#00ea88" d="m2572.3484 1525.2651l90.208496 0l0 369.82263l-90.208496 0z" fill-rule="evenodd"/><path fill="#00ea88" d="m2572.3467 1462.1005l0 0c0 -24.9104 20.193848 -45.104248 45.104248 -45.104248l0 0c11.962402 0 23.434814 4.751953 31.893555 13.210693c8.45874 8.45874 13.210693 19.931152 13.210693 31.893555l0 0c0 24.9104 -20.193848 45.104248 -45.104248 45.104248l0 0c-24.9104 0 -45.104248 -20.193848 -45.104248 -45.104248z" fill-rule="evenodd"/><path fill="#00ea88" d="m2803.3186 1197.1609l90.208496 0l0 697.95605l-90.208496 0z" fill-rule="evenodd"/><path fill="#00ea88" d="m2999.9941 1417.0015l0 90.208496l-303.1328 0l0 -90.208496z" fill-rule="evenodd"/><path fill="#00ea88" d="m1145.6443 1662.3452l0 0c0 -135.51245 109.854614 -245.36707 245.36719 -245.36707l0 0c65.07544 0 127.48547 25.851074 173.50073 71.86633c46.01526 46.01526 71.86633 108.425415 71.86633 173.50073l0 0c0 135.51257 -109.854614 245.36719 -245.36707 245.36719l0 0c-135.51257 0 -245.36719 -109.854614 -245.36719 -245.36719zm90.309814 0l0 0c0 85.635864 69.42151 155.05737 155.05737 155.05737c85.63574 0 155.05725 -69.42151 155.05725 -155.05737l0 0c0 -85.63574 -69.42151 -155.05725 -155.05725 -155.05725l0 0c-85.635864 0 -155.05737 69.42151 -155.05737 155.05725z" fill-rule="evenodd"/><defs><linearGradient id="gcffa2c0978_0_192.1" gradientUnits="userSpaceOnUse" gradientTransform="matrix(31.230575923032337 0.0 0.0 31.230575923032337 0.0 0.0)" spreadMethod="pad" x1="-4.3353436717043685" y1="48.03430815072502" x2="17.747969934098606" y2="70.1176985759302"><stop offset="0.0" stop-color="#00bcbc"/><stop offset="0.78" stop-color="#00ea88"/><stop offset="1.0" stop-color="#006e40"/></linearGradient></defs><path fill="url(#gcffa2c0978_0_192.1)" d="m209.44264 1500.1403l0 0c0 -190.44873 154.3892 -344.8379 344.83795 -344.8379l0 0c91.456726 0 179.1676 36.330933 243.83722 101.00061c64.66968 64.66968 101.00073 152.38062 101.00073 243.83728l0 0c0 190.44873 -154.38922 344.8379 -344.83795 344.8379l0 0c-190.44873 0 -344.83795 -154.38916 -344.83795 -344.8379zm63.284653 0l0 0c0 155.49756 126.055695 281.55322 281.55328 281.55322c155.49756 0 281.55328 -126.055664 281.55328 -281.55322l0 0c0 -155.49756 -126.055725 -281.55334 -281.55328 -281.55334l0 0c-155.49759 0 -281.55328 126.055786 -281.55328 281.55334z" fill-rule="evenodd"/><path fill="#ffffff" d="m36.369392 1382.0289l0 0c20.083447 -88.06677 268.24094 -106.57861 554.27527 -41.347656l0 0c286.0343 65.23108 501.63013 189.50354 481.54663 277.5703l0 0c-20.083374 88.06665 -268.2409 106.57861 -554.27527 41.347534l0 0c-286.0343 -65.23108 -501.63007 -189.50342 -481.54663 -277.5702zm71.16962 16.230469l0 0c-11.119804 48.760742 179.87872 133.90283 426.60718 190.17004c246.7284 56.267212 455.75568 62.352417 466.8755 13.591675c11.119812 -48.760864 -179.87872 -133.90283 -426.60712 -190.17004l0 0c-246.72845 -56.267334 -455.75574 -62.352417 -466.87555 -13.591675z" fill-rule="evenodd"/><defs><linearGradient id="gcffa2c0978_0_192.2" gradientUnits="userSpaceOnUse" gradientTransform="matrix(27.394112699081884 0.0 0.0 27.394112699081884 0.0 0.0)" spreadMethod="pad" x1="0.8832395469452595" y1="48.97598400305368" x2="20.253767500923935" y2="68.34658175723075"><stop offset="0.0" stop-color="#00bcbc"/><stop offset="1.0" stop-color="#00ea88"/></linearGradient></defs><path fill="url(#gcffa2c0978_0_192.2)" d="m210.54886 1472.5413l0 0c9.862762 -122.83557 84.52463 -231.07202 195.84839 -283.91943c111.32376 -52.847412 242.38754 -42.27246 343.79837 27.739502c101.41083 70.01184 157.75366 188.8186 147.79504 311.64636l-62.259644 -5.0479736l0 0c8.154724 -100.578735 -37.982178 -197.86475 -121.02344 -255.1947c-83.04126 -57.329956 -190.36414 -65.98938 -281.52274 -22.714722c-91.1586 43.274536 -152.2962 131.90515 -160.37244 232.49023z" fill-rule="evenodd"/></g></svg>