<svg version="1.1" viewBox="0.0 0.0 4000.0 4000.0" fill="none" stroke="none" stroke-linecap="square" stroke-miterlimit="10" xmlns:xlink="http://www.w3.org/1999/xlink" xmlns="http://www.w3.org/2000/svg"><clipPath id="g10491b0ec65_0_15.0"><path d="m0 0l4000.0 0l0 4000.0l-4000.0 0l0 -4000.0z" clip-rule="nonzero"/></clipPath><g clip-path="url(#g10491b0ec65_0_15.0)"><path fill="#000000" d="m0 0l4000.0 0l0 4000.0l-4000.0 0z" fill-rule="evenodd"/><path fill="#ffffff" d="m432.18552 1538.9181l866.7401 0l0 194.39368l-866.7401 0z" fill-rule="evenodd"/><path fill="#ffffff" d="m962.6955 1538.9181l0 919.59045l-194.39368 0l0 -919.59045z" fill-rule="evenodd"/><defs><linearGradient id="g10491b0ec65_0_15.1" gradientUnits="userSpaceOnUse" gradientTransform="matrix(32.02472827725689 0.0 0.0 32.02472827725689 0.0 0.0)" spreadMethod="pad" x1="47.790092634697665" y1="42.80193407206515" x2="25.14506716803061" y2="65.44671366574056"><stop offset="0.0" stop-color="#00ffff"/><stop offset="0.64" stop-color="#00ff80"/><stop offset="1.0" stop-color="#00ff00"/></linearGradient></defs><path fill="url(#g10491b0ec65_0_15.1)" d="m1167.8623 2095.9172l0 0c0 -200.25769 162.34094 -362.5985 362.5985 -362.5985l0 0c96.16699 0 188.39539 38.20227 256.39575 106.20264c68.00037 68.00037 106.20264 160.22876 106.20264 256.39587l0 0c0 200.25757 -162.34082 362.5984 -362.5984 362.5984l0 0c-200.25757 0 -362.5985 -162.34082 -362.5985 -362.5984z" fill-rule="evenodd"/><path fill="#ffffff" d="m2875.6562 1538.8121l-533.3386 922.3937l-533.3386 -922.3937z" fill-rule="evenodd"/><path fill="#ffffff" d="m1844.6924 1733.0933l-116.37366 -194.25269l-750.3666 0.30004883l116.373535 194.25269z" fill-rule="evenodd"/><path fill="#ffffff" d="m3364.8367 1636.1184l0 772.5354l-194.3938 0l0 -772.5354z" fill-rule="evenodd"/><path fill="#ffffff" d="m2967.4614 1538.9253l600.34644 0l0 194.3938l-600.34644 0z" fill-rule="evenodd"/><path fill="#ffffff" d="m2967.4614 2264.115l600.34644 0l0 194.39355l-600.34644 0z" fill-rule="evenodd"/><path fill="#ffffff" d="m2843.5986 1733.3998l116.373535 -194.34875l475.21704 -0.20239258l-116.373535 194.34875z" fill-rule="evenodd"/></g></svg>