<svg version="1.1" viewBox="0.0 0.0 4000.0 4000.0" fill="none" stroke="none" stroke-linecap="square" stroke-miterlimit="10" xmlns:xlink="http://www.w3.org/1999/xlink" xmlns="http://www.w3.org/2000/svg"><clipPath id="g104734c5ba7_0_33.0"><path d="m0 0l4000.0 0l0 4000.0l-4000.0 0l0 -4000.0z" clip-rule="nonzero"/></clipPath><g clip-path="url(#g104734c5ba7_0_33.0)"><path fill="#ffffff" d="m0 0l4000.0 0l0 4000.0l-4000.0 0z" fill-rule="evenodd"/><path fill="#000000" d="m1087.9957 1731.7935l504.18896 0l0 113.13379l-504.18896 0z" fill-rule="evenodd"/><path fill="#000000" d="m1396.5892 1731.7935l0 534.8977l-113.13379 0l0 -534.8977z" fill-rule="evenodd"/><defs><linearGradient id="g104734c5ba7_0_33.1" gradientUnits="userSpaceOnUse" gradientTransform="matrix(24.42352671691414 0.0 0.0 24.42352671691414 0.0 0.0)" spreadMethod="pad" x1="70.70367802760634" y1="66.90173769299135" x2="53.43354095492201" y2="84.1716833438182"><stop offset="0.0" stop-color="#00ffff"/><stop offset="0.64" stop-color="#00ff80"/><stop offset="1.0" stop-color="#00ff00"/></linearGradient></defs><path fill="url(#g104734c5ba7_0_33.1)" d="m1515.9332 2055.7717l0 0c0 -116.47571 94.42212 -210.8977 210.89758 -210.8977l0 0c55.933594 0 109.57617 22.219482 149.1272 61.770508c39.551025 39.550903 61.770508 93.1936 61.770508 149.1272l0 0c0 116.47534 -94.42212 210.89746 -210.8977 210.89746l0 0c-116.475464 0 -210.89758 -94.42212 -210.89758 -210.89746z" fill-rule="evenodd"/><path fill="#000000" d="m2509.3435 1731.8047l-310.23608 536.4724l-310.23633 -536.4724z" fill-rule="evenodd"/><path fill="#000000" d="m1909.5991 1844.7396l-67.70386 -113.01404l-436.4851 0.16369629l67.703735 113.013916z" fill-rule="evenodd"/><path fill="#000000" d="m2793.896 1788.3337l0 449.35425l-113.13379 0l0 -449.35425z" fill-rule="evenodd"/><path fill="#000000" d="m2562.7458 1731.7977l349.25977 0l0 113.13379l-349.25977 0z" fill-rule="evenodd"/><path fill="#000000" d="m2562.7458 2153.6318l349.25977 0l0 113.13379l-349.25977 0z" fill-rule="evenodd"/><path fill="#000000" d="m2490.696 1844.939l67.70361 -113.07654l276.48535 -0.1517334l-67.70386 113.07654z" fill-rule="evenodd"/></g></svg>